<svg width="241" height="101" viewBox="0 0 241 101" fill="none" xmlns="http://www.w3.org/2000/svg">
<ellipse cx="80.5228" cy="50.5" rx="49.8945" ry="50.5" fill="#AFE26E"/>
<path d="M57.1055 35.0909V46H55.4294V35.0909H57.1055ZM56.4521 40.2898V41.8523C56.0733 41.9943 55.6969 42.1198 55.3228 42.2287C54.9488 42.3329 54.5558 42.4157 54.1438 42.4773C53.7319 42.5341 53.2797 42.5625 52.7873 42.5625C51.5515 42.5625 50.5596 42.2287 49.8115 41.5611C49.0681 40.8935 48.6964 39.892 48.6964 38.5568V35.0625H50.3725V38.5568C50.3725 39.1155 50.4791 39.5748 50.6921 39.9347C50.9052 40.2945 51.194 40.562 51.5586 40.7372C51.9232 40.9124 52.3328 41 52.7873 41C53.4975 41 54.1391 40.9361 54.712 40.8082C55.2897 40.6757 55.8697 40.5028 56.4521 40.2898ZM63.391 46.2557C62.6997 46.2557 62.0723 46.1255 61.5089 45.8651C60.9455 45.5999 60.498 45.2188 60.1666 44.7216C59.8351 44.2197 59.6694 43.6136 59.6694 42.9034C59.6694 42.2784 59.7925 41.7718 60.0387 41.3835C60.2849 40.9905 60.614 40.6828 61.0259 40.4602C61.4379 40.2377 61.8924 40.072 62.3896 39.9631C62.8915 39.8494 63.3957 39.7595 63.9024 39.6932C64.5652 39.608 65.1026 39.544 65.5146 39.5014C65.9312 39.4541 66.2343 39.3759 66.4237 39.267C66.6178 39.1581 66.7149 38.9687 66.7149 38.6989V38.642C66.7149 37.9413 66.5231 37.3968 66.1396 37.0085C65.7608 36.6203 65.1855 36.4261 64.4137 36.4261C63.6135 36.4261 62.9862 36.6013 62.5316 36.9517C62.0771 37.3021 61.7575 37.6761 61.5728 38.0739L59.9819 37.5057C60.266 36.8428 60.6448 36.3267 61.1183 35.9574C61.5965 35.5833 62.1173 35.3229 62.6808 35.1761C63.249 35.0246 63.8077 34.9489 64.3569 34.9489C64.7073 34.9489 65.1098 34.9915 65.5643 35.0767C66.0236 35.1572 66.4663 35.3253 66.8924 35.581C67.3233 35.8366 67.6808 36.2225 67.9649 36.7386C68.249 37.2547 68.391 37.946 68.391 38.8125V46H66.7149V44.5227H66.6296C66.516 44.7595 66.3266 45.0128 66.0615 45.2827C65.7963 45.5526 65.4436 45.7822 65.0032 45.9716C64.5629 46.161 64.0255 46.2557 63.391 46.2557ZM63.6467 44.75C64.3096 44.75 64.8683 44.6198 65.3228 44.3594C65.7821 44.099 66.1277 43.7628 66.3598 43.3509C66.5965 42.9389 66.7149 42.5057 66.7149 42.0511V40.517C66.6438 40.6023 66.4876 40.6804 66.2461 40.7514C66.0094 40.8177 65.7348 40.8769 65.4223 40.929C65.1145 40.9763 64.8138 41.0189 64.5203 41.0568C64.2314 41.09 63.9971 41.1184 63.8171 41.142C63.3815 41.1989 62.9743 41.2912 62.5955 41.419C62.2215 41.5421 61.9185 41.7292 61.6865 41.9801C61.4592 42.2263 61.3455 42.5625 61.3455 42.9886C61.3455 43.571 61.561 44.0114 61.9919 44.3097C62.4275 44.6032 62.9791 44.75 63.6467 44.75ZM75.8821 46.2273C74.8594 46.2273 73.9787 45.9858 73.2401 45.5028C72.5014 45.0199 71.9333 44.3546 71.5355 43.5071C71.1378 42.6596 70.9389 41.6913 70.9389 40.6023C70.9389 39.4943 71.1425 38.5166 71.5497 37.669C71.9617 36.8168 72.5346 36.1515 73.2685 35.6733C74.0071 35.1903 74.8689 34.9489 75.8537 34.9489C76.6208 34.9489 77.312 35.0909 77.9276 35.375C78.5431 35.6591 79.0474 36.0568 79.4404 36.5682C79.8334 37.0795 80.0772 37.6761 80.1719 38.358H78.4958C78.3679 37.8608 78.0838 37.4205 77.6435 37.0369C77.2079 36.6487 76.6208 36.4545 75.8821 36.4545C75.2287 36.4545 74.6558 36.625 74.1634 36.9659C73.6757 37.3021 73.2945 37.7779 73.0199 38.3935C72.75 39.0043 72.6151 39.7216 72.6151 40.5455C72.6151 41.3883 72.7477 42.1222 73.0128 42.7472C73.2827 43.3722 73.6615 43.8575 74.1492 44.2031C74.6416 44.5488 75.2192 44.7216 75.8821 44.7216C76.3177 44.7216 76.7131 44.6458 77.0682 44.4943C77.4233 44.3428 77.724 44.125 77.9702 43.8409C78.2164 43.5568 78.3916 43.2159 78.4958 42.8182H80.1719C80.0772 43.4621 79.8428 44.0421 79.4688 44.5582C79.0995 45.0696 78.6094 45.4768 77.9986 45.7798C77.3925 46.0781 76.687 46.2273 75.8821 46.2273ZM81.7628 36.6534V35.0909H90.6264V36.6534H87.0469V46H85.3708V36.6534H81.7628ZM100.373 39.7784V41.3409H94.3498V39.7784H100.373ZM94.7475 35.0909V46H93.0714V35.0909H94.7475ZM101.651 35.0909V46H99.9748V35.0909H101.651ZM107.922 46.2557C107.231 46.2557 106.604 46.1255 106.04 45.8651C105.477 45.5999 105.029 45.2188 104.698 44.7216C104.366 44.2197 104.201 43.6136 104.201 42.9034C104.201 42.2784 104.324 41.7718 104.57 41.3835C104.816 40.9905 105.145 40.6828 105.557 40.4602C105.969 40.2377 106.424 40.072 106.921 39.9631C107.423 39.8494 107.927 39.7595 108.434 39.6932C109.096 39.608 109.634 39.544 110.046 39.5014C110.462 39.4541 110.766 39.3759 110.955 39.267C111.149 39.1581 111.246 38.9687 111.246 38.6989V38.642C111.246 37.9413 111.054 37.3968 110.671 37.0085C110.292 36.6203 109.717 36.4261 108.945 36.4261C108.145 36.4261 107.517 36.6013 107.063 36.9517C106.608 37.3021 106.289 37.6761 106.104 38.0739L104.513 37.5057C104.797 36.8428 105.176 36.3267 105.65 35.9574C106.128 35.5833 106.649 35.3229 107.212 35.1761C107.78 35.0246 108.339 34.9489 108.888 34.9489C109.239 34.9489 109.641 34.9915 110.096 35.0767C110.555 35.1572 110.998 35.3253 111.424 35.581C111.855 35.8366 112.212 36.2225 112.496 36.7386C112.78 37.2547 112.922 37.946 112.922 38.8125V46H111.246V44.5227H111.161C111.047 44.7595 110.858 45.0128 110.593 45.2827C110.328 45.5526 109.975 45.7822 109.534 45.9716C109.094 46.161 108.557 46.2557 107.922 46.2557ZM108.178 44.75C108.841 44.75 109.4 44.6198 109.854 44.3594C110.313 44.099 110.659 43.7628 110.891 43.3509C111.128 42.9389 111.246 42.5057 111.246 42.0511V40.517C111.175 40.6023 111.019 40.6804 110.777 40.7514C110.541 40.8177 110.266 40.8769 109.954 40.929C109.646 40.9763 109.345 41.0189 109.052 41.0568C108.763 41.09 108.528 41.1184 108.348 41.142C107.913 41.1989 107.506 41.2912 107.127 41.419C106.753 41.5421 106.45 41.7292 106.218 41.9801C105.99 42.2263 105.877 42.5625 105.877 42.9886C105.877 43.571 106.092 44.0114 106.523 44.3097C106.959 44.6032 107.51 44.75 108.178 44.75ZM122.544 46V36.625H119.646C118.993 36.625 118.479 36.7765 118.105 37.0795C117.731 37.3826 117.544 37.7992 117.544 38.3295C117.544 38.8504 117.712 39.2599 118.048 39.5582C118.389 39.8565 118.856 40.0057 119.447 40.0057H122.97V41.5682H119.447C118.709 41.5682 118.072 41.438 117.537 41.1776C117.002 40.9171 116.59 40.5455 116.301 40.0625C116.012 39.5748 115.868 38.9972 115.868 38.3295C115.868 37.6572 116.019 37.0795 116.322 36.5966C116.625 36.1136 117.059 35.742 117.622 35.4815C118.19 35.2211 118.865 35.0909 119.646 35.0909H124.135V46H122.544ZM115.271 46L118.368 40.5739H120.186L117.09 46H115.271ZM132.837 35.0909H134.513V44.4375H138.632V35.0909H140.309V44.4375H144.428V35.0909H146.104V46H132.837V35.0909ZM149.165 46V35.0909H150.841V39.8352H151.949L155.87 35.0909H158.029L153.625 40.3466L158.086 46H155.927L152.347 41.3977H150.841V46H149.165ZM163.89 46.2273C162.905 46.2273 162.041 45.9929 161.298 45.5241C160.559 45.0554 159.981 44.3996 159.565 43.5568C159.153 42.714 158.947 41.7292 158.947 40.6023C158.947 39.4659 159.153 38.474 159.565 37.6264C159.981 36.7789 160.559 36.1207 161.298 35.652C162.041 35.1832 162.905 34.9489 163.89 34.9489C164.875 34.9489 165.737 35.1832 166.475 35.652C167.219 36.1207 167.796 36.7789 168.208 37.6264C168.625 38.474 168.833 39.4659 168.833 40.6023C168.833 41.7292 168.625 42.714 168.208 43.5568C167.796 44.3996 167.219 45.0554 166.475 45.5241C165.737 45.9929 164.875 46.2273 163.89 46.2273ZM163.89 44.7216C164.638 44.7216 165.254 44.5298 165.737 44.1463C166.219 43.7628 166.577 43.2585 166.809 42.6335C167.041 42.0085 167.157 41.3314 167.157 40.6023C167.157 39.8731 167.041 39.1937 166.809 38.5639C166.577 37.9342 166.219 37.4252 165.737 37.0369C165.254 36.6487 164.638 36.4545 163.89 36.4545C163.142 36.4545 162.526 36.6487 162.043 37.0369C161.56 37.4252 161.203 37.9342 160.971 38.5639C160.739 39.1937 160.623 39.8731 160.623 40.6023C160.623 41.3314 160.739 42.0085 160.971 42.6335C161.203 43.2585 161.56 43.7628 162.043 44.1463C162.526 44.5298 163.142 44.7216 163.89 44.7216ZM170.426 46V44.4375H170.824C171.15 44.4375 171.422 44.3736 171.64 44.2457C171.858 44.1132 172.033 43.8835 172.166 43.5568C172.303 43.2254 172.407 42.7661 172.478 42.179C172.554 41.5871 172.609 40.8343 172.642 39.9205L172.841 35.0909H180.113V46H178.437V36.6534H174.431L174.261 40.5455C174.223 41.4403 174.143 42.2287 174.02 42.9105C173.901 43.5876 173.719 44.1558 173.473 44.6151C173.231 45.0743 172.909 45.42 172.507 45.652C172.104 45.884 171.6 46 170.994 46H170.426ZM186.399 46.2557C185.708 46.2557 185.08 46.1255 184.517 45.8651C183.953 45.5999 183.506 45.2188 183.174 44.7216C182.843 44.2197 182.677 43.6136 182.677 42.9034C182.677 42.2784 182.8 41.7718 183.047 41.3835C183.293 40.9905 183.622 40.6828 184.034 40.4602C184.446 40.2377 184.9 40.072 185.397 39.9631C185.899 39.8494 186.404 39.7595 186.91 39.6932C187.573 39.608 188.11 39.544 188.522 39.5014C188.939 39.4541 189.242 39.3759 189.431 39.267C189.626 39.1581 189.723 38.9687 189.723 38.6989V38.642C189.723 37.9413 189.531 37.3968 189.147 37.0085C188.769 36.6203 188.193 36.4261 187.422 36.4261C186.621 36.4261 185.994 36.6013 185.539 36.9517C185.085 37.3021 184.765 37.6761 184.581 38.0739L182.99 37.5057C183.274 36.8428 183.653 36.3267 184.126 35.9574C184.604 35.5833 185.125 35.3229 185.689 35.1761C186.257 35.0246 186.815 34.9489 187.365 34.9489C187.715 34.9489 188.118 34.9915 188.572 35.0767C189.031 35.1572 189.474 35.3253 189.9 35.581C190.331 35.8366 190.689 36.2225 190.973 36.7386C191.257 37.2547 191.399 37.946 191.399 38.8125V46H189.723V44.5227H189.637C189.524 44.7595 189.334 45.0128 189.069 45.2827C188.804 45.5526 188.451 45.7822 188.011 45.9716C187.571 46.161 187.033 46.2557 186.399 46.2557ZM186.654 44.75C187.317 44.75 187.876 44.6198 188.331 44.3594C188.79 44.099 189.136 43.7628 189.368 43.3509C189.604 42.9389 189.723 42.5057 189.723 42.0511V40.517C189.652 40.6023 189.495 40.6804 189.254 40.7514C189.017 40.8177 188.743 40.8769 188.43 40.929C188.122 40.9763 187.822 41.0189 187.528 41.0568C187.239 41.09 187.005 41.1184 186.825 41.142C186.389 41.1989 185.982 41.2912 185.603 41.419C185.229 41.5421 184.926 41.7292 184.694 41.9801C184.467 42.2263 184.353 42.5625 184.353 42.9886C184.353 43.571 184.569 44.0114 185 44.3097C185.435 44.6032 185.987 44.75 186.654 44.75ZM81.5343 75V57.5455H84.6962V72.3494H92.3837V75H81.5343ZM100.787 75.2557C99.4746 75.2557 98.3411 74.983 97.3866 74.4375C96.4377 73.8864 95.7076 73.108 95.1962 72.1023C94.6849 71.0909 94.4292 69.9006 94.4292 68.5312C94.4292 67.1847 94.6849 66.0028 95.1962 64.9858C95.7133 63.9631 96.4349 63.1676 97.361 62.5994C98.2871 62.0256 99.3752 61.7386 100.625 61.7386C101.432 61.7386 102.193 61.8693 102.909 62.1307C103.631 62.3864 104.267 62.7841 104.818 63.3239C105.375 63.8636 105.813 64.5511 106.131 65.3864C106.449 66.2159 106.608 67.2045 106.608 68.3523V69.2983H95.878V67.2188H103.651C103.645 66.6278 103.517 66.1023 103.267 65.642C103.017 65.1761 102.668 64.8097 102.219 64.5426C101.776 64.2756 101.259 64.142 100.668 64.142C100.037 64.142 99.4832 64.2955 99.0059 64.6023C98.5286 64.9034 98.1564 65.3011 97.8894 65.7955C97.628 66.2841 97.4945 66.821 97.4888 67.4062V69.2216C97.4888 69.983 97.628 70.6364 97.9064 71.1818C98.1849 71.7216 98.5741 72.1364 99.0741 72.4261C99.5741 72.7102 100.159 72.8523 100.83 72.8523C101.279 72.8523 101.685 72.7898 102.048 72.6648C102.412 72.5341 102.727 72.3438 102.995 72.0938C103.262 71.8438 103.463 71.5341 103.6 71.1648L106.48 71.4886C106.298 72.25 105.952 72.9148 105.441 73.483C104.935 74.0455 104.287 74.483 103.497 74.7955C102.708 75.1023 101.804 75.2557 100.787 75.2557ZM112.985 75.2642C112.156 75.2642 111.409 75.1165 110.744 74.821C110.085 74.5199 109.562 74.0767 109.176 73.4915C108.795 72.9062 108.605 72.1847 108.605 71.3267C108.605 70.5881 108.741 69.9773 109.014 69.4943C109.286 69.0114 109.659 68.625 110.13 68.3352C110.602 68.0455 111.133 67.8267 111.724 67.679C112.321 67.5256 112.937 67.4148 113.573 67.3466C114.34 67.267 114.963 67.196 115.44 67.1335C115.917 67.0653 116.264 66.9631 116.48 66.8267C116.701 66.6847 116.812 66.4659 116.812 66.1705V66.1193C116.812 65.4773 116.622 64.9801 116.241 64.6278C115.86 64.2756 115.312 64.0994 114.596 64.0994C113.84 64.0994 113.241 64.2642 112.798 64.5938C112.36 64.9233 112.065 65.3125 111.911 65.7614L109.031 65.3523C109.258 64.5568 109.633 63.892 110.156 63.358C110.678 62.8182 111.318 62.4148 112.073 62.1477C112.829 61.875 113.664 61.7386 114.579 61.7386C115.21 61.7386 115.838 61.8125 116.463 61.9602C117.088 62.108 117.659 62.3523 118.176 62.6932C118.693 63.0284 119.107 63.4858 119.42 64.0653C119.738 64.6449 119.897 65.3693 119.897 66.2386V75H116.931V73.2017H116.829C116.642 73.5653 116.377 73.9062 116.036 74.2244C115.701 74.5369 115.278 74.7898 114.767 74.983C114.261 75.1705 113.667 75.2642 112.985 75.2642ZM113.786 72.9972C114.406 72.9972 114.943 72.875 115.397 72.6307C115.852 72.3807 116.201 72.0511 116.446 71.642C116.696 71.233 116.821 70.7869 116.821 70.304V68.7614C116.724 68.8409 116.559 68.9148 116.326 68.983C116.099 69.0511 115.843 69.1108 115.559 69.1619C115.275 69.2131 114.994 69.2585 114.715 69.2983C114.437 69.3381 114.196 69.3722 113.991 69.4006C113.531 69.4631 113.119 69.5653 112.755 69.7074C112.392 69.8494 112.105 70.0483 111.894 70.304C111.684 70.554 111.579 70.8778 111.579 71.2756C111.579 71.8438 111.786 72.2727 112.201 72.5625C112.616 72.8523 113.144 72.9972 113.786 72.9972ZM127.857 75.2301C126.829 75.2301 125.909 74.9659 125.096 74.4375C124.284 73.9091 123.642 73.142 123.17 72.1364C122.698 71.1307 122.463 69.9091 122.463 68.4716C122.463 67.017 122.701 65.7898 123.178 64.7898C123.661 63.7841 124.312 63.0256 125.13 62.5142C125.948 61.9972 126.86 61.7386 127.866 61.7386C128.633 61.7386 129.264 61.8693 129.758 62.1307C130.252 62.3864 130.644 62.696 130.934 63.0597C131.224 63.4176 131.448 63.7557 131.607 64.0739H131.735V57.5455H134.829V75H131.795V72.9375H131.607C131.448 73.2557 131.218 73.5937 130.917 73.9517C130.616 74.304 130.218 74.6051 129.724 74.8551C129.23 75.1051 128.607 75.2301 127.857 75.2301ZM128.718 72.6989C129.372 72.6989 129.928 72.5227 130.389 72.1705C130.849 71.8125 131.198 71.3153 131.437 70.679C131.676 70.0426 131.795 69.3011 131.795 68.4545C131.795 67.608 131.676 66.8722 131.437 66.2472C131.204 65.6222 130.857 65.1364 130.397 64.7898C129.943 64.4432 129.383 64.2699 128.718 64.2699C128.031 64.2699 127.457 64.4489 126.997 64.8068C126.536 65.1648 126.19 65.6591 125.957 66.2898C125.724 66.9205 125.607 67.642 125.607 68.4545C125.607 69.2727 125.724 70.0028 125.957 70.6449C126.196 71.2812 126.545 71.7841 127.005 72.1534C127.471 72.517 128.042 72.6989 128.718 72.6989ZM143.912 75.2557C142.6 75.2557 141.466 74.983 140.512 74.4375C139.563 73.8864 138.833 73.108 138.321 72.1023C137.81 71.0909 137.554 69.9006 137.554 68.5312C137.554 67.1847 137.81 66.0028 138.321 64.9858C138.838 63.9631 139.56 63.1676 140.486 62.5994C141.412 62.0256 142.5 61.7386 143.75 61.7386C144.557 61.7386 145.318 61.8693 146.034 62.1307C146.756 62.3864 147.392 62.7841 147.943 63.3239C148.5 63.8636 148.938 64.5511 149.256 65.3864C149.574 66.2159 149.733 67.2045 149.733 68.3523V69.2983H139.003V67.2188H146.776C146.77 66.6278 146.642 66.1023 146.392 65.642C146.142 65.1761 145.793 64.8097 145.344 64.5426C144.901 64.2756 144.384 64.142 143.793 64.142C143.162 64.142 142.608 64.2955 142.131 64.6023C141.654 64.9034 141.281 65.3011 141.014 65.7955C140.753 66.2841 140.62 66.821 140.614 67.4062V69.2216C140.614 69.983 140.753 70.6364 141.031 71.1818C141.31 71.7216 141.699 72.1364 142.199 72.4261C142.699 72.7102 143.284 72.8523 143.955 72.8523C144.404 72.8523 144.81 72.7898 145.173 72.6648C145.537 72.5341 145.852 72.3438 146.12 72.0938C146.387 71.8438 146.588 71.5341 146.725 71.1648L149.605 71.4886C149.423 72.25 149.077 72.9148 148.566 73.483C148.06 74.0455 147.412 74.483 146.622 74.7955C145.833 75.1023 144.929 75.2557 143.912 75.2557ZM152.343 75V61.9091H155.335V64.0909H155.471C155.71 63.3352 156.119 62.7528 156.698 62.3438C157.284 61.929 157.951 61.7216 158.701 61.7216C158.872 61.7216 159.062 61.7301 159.272 61.7472C159.488 61.7585 159.667 61.7784 159.809 61.8068V64.6449C159.678 64.5994 159.471 64.5597 159.187 64.5256C158.909 64.4858 158.639 64.4659 158.377 64.4659C157.815 64.4659 157.309 64.5881 156.86 64.8324C156.417 65.071 156.068 65.4034 155.812 65.8295C155.556 66.2557 155.428 66.7472 155.428 67.304V75H152.343Z" fill="white"/>
</svg>
