<svg width="28" height="46" viewBox="0 0 28 46" fill="none" xmlns="http://www.w3.org/2000/svg">
<path d="M27.5767 24.7051C26.9246 23.3939 25.0849 22.2898 22.6397 24.153C19.3096 26.7753 14 26.7753 14 26.7753C14 26.7753 8.69041 26.7753 5.36028 24.153C2.91508 22.2898 1.07535 23.3939 0.423299 24.7051C-0.741084 27.0054 0.563025 28.1325 3.52056 29.9957C6.05891 31.6059 9.52877 32.204 11.7644 32.4341L9.90137 34.2743C7.24658 36.8736 4.68494 39.3809 2.93836 41.1291C1.89042 42.1873 1.89042 43.8665 2.93836 44.8556L3.26439 45.2237C4.31234 46.2588 6.03562 46.2588 7.08357 45.2237L14 38.3688C16.6781 40.9681 19.2164 43.4754 20.9863 45.2237C22.0342 46.2588 23.7342 46.2588 24.8055 45.2237L25.1082 44.8556C26.1794 43.8665 26.1794 42.1873 25.1082 41.1291L18.1685 34.2743L16.3288 32.4111C18.5411 32.204 21.9644 31.5829 24.4794 29.9957C27.437 28.1325 28.7411 27.0054 27.5767 24.7051ZM14 5.91174C17.2137 5.91174 19.8219 8.48806 19.8219 11.6395C19.8219 14.8139 17.2137 17.3672 14 17.3672C10.7863 17.3672 8.17809 14.8139 8.17809 11.6395C8.17809 8.48806 10.7863 5.91174 14 5.91174ZM14 23.2789C20.5205 23.2789 25.7835 18.0803 25.7835 11.6395C25.7835 8.55248 24.5421 5.59194 22.3322 3.40912C20.1224 1.2263 17.1252 0 14 0C10.8748 0 7.87762 1.2263 5.66777 3.40912C3.45793 5.59194 2.21645 8.55248 2.21645 11.6395C2.21645 18.0803 7.47946 23.2789 14 23.2789Z" fill="#E07A19"/>
</svg>
