<svg width="47" height="47" viewBox="0 0 47 47" fill="none" xmlns="http://www.w3.org/2000/svg">
<path d="M3 0C1.34315 0 0 1.34315 0 3V44C0 45.6569 1.34315 47 3 47H44C45.6569 47 47 45.6569 47 44V3C47 1.34315 45.6569 0 44 0H3ZM20.8637 12.5676C22.1945 12.5538 23.4961 12.7013 24.1311 12.7196C26.485 12.7874 26.9007 13.9779 26.8706 14.9572C26.8358 16.0894 26.2535 20.1086 26.851 22.042C27.0978 22.8408 28.0569 22.8482 28.6727 22.2826C30.5922 20.5193 31.9567 17.1893 32.9923 14.9572C33.6078 13.6307 33.5105 13.5647 34.9286 13.563L40.5627 13.5544C41.9195 13.5527 41.8665 13.5051 42.3011 14.0593C43.312 15.3482 39.1111 20.7095 37.7543 22.1919C35.2504 24.9276 36.7113 25.987 37.1146 26.3629C38.9832 28.1052 40.7888 29.9119 41.911 31.5781C42.8031 32.9028 42.4347 34.1362 41.2999 34.1829L35.2585 34.4324C33.2538 34.5148 30.1365 30.9211 29.6389 30.138C29.2365 29.4922 27.2972 28.6827 27.1145 30.3331L26.8591 32.6366C26.6737 34.2832 25.4579 34.2448 24.4983 34.286C17.8529 34.5719 15.5898 32.0419 12.2433 28.3077C9.79069 24.8391 7.45013 21.3506 5.51063 17.1716C5.2415 16.5917 5.03104 16.0834 4.87486 15.608C4.55999 14.6497 5.07605 13.6919 6.07954 13.5889C7.56233 13.4368 9.66822 13.5803 11.2451 13.5456C11.8741 13.5318 12.2986 13.8922 12.6306 14.6099C13.8901 17.3325 15.2604 20.0075 17.0533 22.3887C17.1562 22.5254 17.271 22.6538 17.4024 22.7635C17.4889 22.8357 17.5741 22.9011 17.6576 22.958C18.7234 23.6842 19.2714 21.2549 19.2902 19.9653C19.3011 19.2206 19.3014 18.3859 19.306 17.6449C19.3091 17.1497 19.2889 16.6171 19.1425 16.1072C18.6693 14.4596 17.8922 12.8362 19.5952 12.6404C20.007 12.593 20.4368 12.572 20.8637 12.5676Z" fill="#E07A19"/>
</svg>
